Coordinates
version=1
nRows=11
nColumns=40
inDegrees=yes

Units are S.I. units (second, meters, Newtons, ...)
If the header above contains a line with 'inDegrees', this indicates whether rotational values are in degrees (yes) or radians (no).

endheader
time	pelvis_tilt	pelvis_list	pelvis_rotation	pelvis_tx	pelvis_ty	pelvis_tz	hip_flexion_r	hip_adduction_r	hip_rotation_r	knee_angle_r	knee_angle_r_beta	ankle_angle_r	subtalar_angle_r	mtp_angle_r	hip_flexion_l	hip_adduction_l	hip_rotation_l	knee_angle_l	knee_angle_l_beta	ankle_angle_l	subtalar_angle_l	mtp_angle_l	lumbar_extension	lumbar_bending	lumbar_rotation	arm_flex_r	arm_add_r	arm_rot_r	elbow_flex_r	pro_sup_r	wrist_flex_r	wrist_dev_r	arm_flex_l	arm_add_l	arm_rot_l	elbow_flex_l	pro_sup_l	wrist_flex_l	wrist_dev_l
      0.00000000	     19.51594957	      3.97654993	      5.65416499	     -0.02682946	      0.97470764	     -0.32928956	      3.67403817	     -7.45037991	    -12.81581930	     28.65449689	      0.50011532	     -8.45155417	      0.00000000	      0.00000000	    -28.61677782	      4.73304229	      9.55187741	     10.22089226	      0.17838822	     -5.18740756	      0.00000000	      0.00000000	    -34.40378936	     -0.89569822	     -9.31914704	     -2.52526914	    -15.55521300	      5.18519531	     41.40910125	     76.45865041	      0.00000000	      0.00000000	     10.40798632	    -26.72467776	     26.95000762	     53.74164342	     75.60397774	      0.00000000	      0.00000000
      0.00400000	     19.22392160	      4.17674712	      5.70626731	     -0.02200935	      0.97340454	     -0.32956532	      4.21726122	     -7.67428610	    -13.02208692	     27.61258050	      0.48193044	     -8.38321165	      0.00000000	      0.00000000	    -28.67614789	      4.91289794	      9.49102940	     10.18056235	      0.17768433	     -5.04248808	      0.00000000	      0.00000000	    -34.15952397	     -1.05915365	     -9.53349467	     -2.74324330	    -15.57706958	      5.29389025	     41.60173776	     76.44604627	      0.00000000	      0.00000000	     10.57549124	    -26.80422363	     26.99049845	     53.95743461	     75.62106717	      0.00000000	      0.00000000
      0.00800000	     19.09189077	      4.20206843	      5.78611194	     -0.01761947	      0.97252175	     -0.32966725	      4.53879094	     -7.63633527	    -13.22671127	     26.30034765	      0.45902766	     -8.86278479	      0.00000000	      0.00000000	    -28.80046300	      4.88543981	      9.49961590	     10.28075294	      0.17943299	     -4.83762154	      0.00000000	      0.00000000	    -34.13629254	     -1.03299753	     -9.66715228	     -2.60694651	    -15.52917412	      5.32980715	     41.31227113	     76.34913439	      0.00000000	      0.00000000	     10.91753758	    -26.88843171	     27.10552801	     54.09517245	     75.68124980	      0.00000000	      0.00000000
      0.01200000	     18.79226899	      4.32457698	      5.75623411	     -0.01276324	      0.97121896	     -0.32948566	      5.11613780	     -7.72566857	    -13.46395890	     25.25695692	      0.44081706	     -8.84816082	      0.00000000	      0.00000000	    -28.87145949	      5.00529160	      9.27143480	     10.19487881	      0.17793420	     -4.67192306	      0.00000000	      0.00000000	    -33.90995693	     -1.18192281	     -9.74911225	     -2.53323684	    -15.40051994	      5.06411425	     40.99055217	     76.32912207	      0.00000000	      0.00000000	     11.10817522	    -26.98748165	     27.09841686	     54.27787637	     75.67822343	      0.00000000	      0.00000000
      0.01600000	     18.57481031	      4.33606814	      5.75736676	     -0.00822390	      0.97010781	     -0.32939721	      5.56658448	     -7.64023195	    -13.50596810	     24.03842123	      0.41954960	     -9.12458688	      0.00000000	      0.00000000	    -28.92511838	      5.00118226	      9.26756895	     10.26919500	      0.17923126	     -4.47624966	      0.00000000	      0.00000000	    -33.77669686	     -1.20415327	     -9.79497443	     -2.42333631	    -15.30824286	      4.96171392	     40.65346567	     76.33961476	      0.00000000	      0.00000000	     11.37218325	    -27.04997553	     27.10430875	     54.44509230	     75.66785192	      0.00000000	      0.00000000
      0.02000000	     18.36870286	      4.42769227	      5.56688512	     -0.00380307	      0.96884979	     -0.32913311	      6.12361720	     -7.66779787	    -13.52603001	     23.03001597	      0.40194961	     -9.21491144	      0.00000000	      0.00000000	    -29.00969708	      5.16453087	      8.98703492	     10.29619380	      0.17970248	     -4.28600445	      0.00000000	      0.00000000	    -33.67702367	     -1.37992738	     -9.72958056	     -2.41077371	    -15.31421785	      4.98135513	     40.63945559	     76.35498349	      0.00000000	      0.00000000	     11.64607045	    -27.13736289	     27.13402948	     54.67004809	     75.65524159	      0.00000000	      0.00000000
      0.02400000	     18.14401846	      4.45561465	      5.56916184	      0.00091062	      0.96767095	     -0.32906533	      6.52863073	     -7.58006393	    -13.47678294	     21.76998627	      0.37995794	     -9.50462514	      0.00000000	      0.00000000	    -29.05429228	      5.16509229	      8.94538639	     10.40079065	      0.18152804	     -4.12132784	      0.00000000	      0.00000000	    -33.51612420	     -1.40873700	     -9.75306251	     -2.42650077	    -15.26031824	      4.92631138	     40.47655937	     76.40338917	      0.00000000	      0.00000000	     11.90230643	    -27.14423677	     27.15118990	     54.75859977	     75.63679190	      0.00000000	      0.00000000
      0.02800000	     17.96954525	      4.49636973	      5.33567936	      0.00534939	      0.96644138	     -0.32869183	      7.02742635	     -7.49446439	    -13.33716081	     20.67698591	      0.36088148	     -9.80039474	      0.00000000	      0.00000000	    -29.10730360	      5.29321375	      8.55698401	     10.53638454	      0.18389460	     -3.95227504	      0.00000000	      0.00000000	    -33.45526956	     -1.56035824	     -9.63885333	     -2.34167306	    -15.21851125	      4.84597415	     40.31883631	     76.40656427	      0.00000000	      0.00000000	     12.15928794	    -27.23228436	     27.14000079	     54.96605757	     75.61696788	      0.00000000	      0.00000000
      0.03200000	     17.72080818	      4.53906318	      5.33979034	      0.01026584	      0.96509711	     -0.32863797	      7.49819880	     -7.44180575	    -13.45673756	     19.60676532	      0.34220261	     -9.92529925	      0.00000000	      0.00000000	    -29.13454086	      5.31865163	      8.46432426	     10.64988558	      0.18587557	     -3.71680285	      0.00000000	      0.00000000	    -33.26361099	     -1.60304382	     -9.67998985	     -2.38188399	    -15.18354371	      4.76955926	     40.23688460	     76.40587347	      0.00000000	      0.00000000	     12.36247617	    -27.26123631	     27.14067000	     55.09608711	     75.59286552	      0.00000000	      0.00000000
      0.03600000	     17.46183753	      4.64181917	      5.19341881	      0.01494949	      0.96365313	     -0.32833967	      8.13919900	     -7.48650926	    -13.53479047	     18.80523260	      0.32821323	     -9.93529982	      0.00000000	      0.00000000	    -29.15721864	      5.47249101	      8.25308507	     10.72126352	      0.18712135	     -3.55551189	      0.00000000	      0.00000000	    -33.08107811	     -1.78325713	     -9.62632755	     -2.37320596	    -15.14791333	      4.76255823	     40.13612380	     76.39876044	      0.00000000	      0.00000000	     12.58431239	    -27.31663402	     27.15020391	     55.25796956	     75.59450704	      0.00000000	      0.00000000
      0.04000000	     17.18734793	      4.75953851	      5.14135998	      0.01990068	      0.96222851	     -0.32827642	      8.72062354	     -7.53777814	    -13.64058849	     17.96056561	      0.31347101	     -9.99162126	      0.00000000	      0.00000000	    -29.16995352	      5.60457958	      8.10156548	     10.81154395	      0.18869704	     -3.42297473	      0.00000000	      0.00000000	    -32.85063769	     -1.92252185	     -9.65977204	     -2.39220670	    -15.08323733	      4.70426507	     39.97410754	     76.42121887	      0.00000000	      0.00000000	     12.75321819	    -27.33244752	     27.14267396	     55.40199701	     75.60296777	      0.00000000	      0.00000000
